# xmcd
#
# Track frame offsets:
#	150
#	11300
#	23617
#	37312
#	48157
#	64560
#	74235
#	89127
#	107242
#	118067
#	135717
#	147650
#	160722
#	177025
#	191090
#	203945
#	216035
#	227107
#	242885
#	255850
#
# Disc length: 3554
#
# Revision: 1
# Processed by: cddbd v1.5.2PL0 Copyright (c) Steve Scherf et al.
# Submitted via: audiograbber 1.80
# Normalized: r0:DSETVAR1
#
DISCID=270de014
DTITLE=Various Artist - Soft'N'Sentimental
DYEAR=1995
DGENRE=Country
TTITLE0=Charlie Rich - She Called Me Baby
TTITLE1=Dickey Lee - Never Ending Song Of Love
TTITLE2=Patsy Cline - She's Got You
TTITLE3=Don Gibson - Lonesome Number One
TTITLE4=Elvis Presley - Always On My Mind
TTITLE5=Tom T Hall - I Love
TTITLE6=Donna Fargo - You Were Always There
TTITLE7=Ronnie Milsap - What A Difference You've Made In My Life
TTITLE8=Jim Reeves - Am I That Easy To Forget
TTITLE9=Eddie Rabbit - Both To Each Other (Friends And Lovers)
TTITLE10=Bobby Goldsboro - Watchin Scotty Grow
TTITLE11=Eddy Arnold - I Really Don't Want To Know
TTITLE12=Lee Greenwood - Somebody's Gonna Love You
TTITLE13=Don Williams - I'm Just A Country Boy
TTITLE14=Elvis Presley - Don't Cry Daddy
TTITLE15=Roger Miller - Little Green Apples
TTITLE16=Willie Nelson - I'm A Memory
TTITLE17=Bill Anderson - Mama Sang A Song
TTITLE18=Jimmy Elledge - Funny How Time Slips Away
TTITLE19=George Jones - Tender Years
EXTD=
EXTT0=
EXTT1=
EXTT2=
EXTT3=
EXTT4=
EXTT5=
EXTT6=
EXTT7=
EXTT8=
EXTT9=
EXTT10=
EXTT11=
EXTT12=
EXTT13=
EXTT14=
EXTT15=
EXTT16=
EXTT17=
EXTT18=
EXTT19=
PLAYORDER=
